<svg width="109" height="46" viewBox="0 0 109 46" fill="none" xmlns="http://www.w3.org/2000/svg">
<path d="M59.0856 10.7536H51.5883V36.9577H59.0856V10.7536Z" fill="#32325D"/>
<path fill-rule="evenodd" clip-rule="evenodd" d="M43.5534 12.9697L43.0754 10.7536H36.6236V36.9577H44.091V19.1988C45.8533 16.8929 48.8403 17.3121 49.7662 17.6416V10.7536C48.8104 10.3942 45.3157 9.7354 43.5534 12.9697Z" fill="#32325D"/>
<path fill-rule="evenodd" clip-rule="evenodd" d="M108.4 23.9605C108.4 16.2939 104.697 10.2445 97.6174 10.2445C90.5084 10.2445 86.2072 16.2939 86.2072 23.9006C86.2072 32.9148 91.2851 37.4668 98.5733 37.4668C102.128 37.4668 104.816 36.6582 106.847 35.5202V29.5307C104.816 30.5489 102.486 31.1778 99.5291 31.1778C96.6317 31.1778 94.0629 30.1596 93.7344 26.6258H108.341C108.341 26.2365 108.4 24.6792 108.4 23.9605ZM93.6448 21.1155C93.6448 17.7314 95.7058 16.3239 97.5876 16.3239C99.4096 16.3239 101.351 17.7314 101.351 21.1155H93.6448Z" fill="#32325D"/>
<path fill-rule="evenodd" clip-rule="evenodd" d="M74.6776 10.2445C71.7503 10.2445 69.8685 11.6221 68.8231 12.5804L68.4348 10.7237H61.8635V45.6425L69.3309 44.0553L69.3607 35.5801C70.4361 36.3588 72.0192 37.4668 74.6477 37.4668C79.9944 37.4668 84.8631 33.1544 84.8631 23.661C84.8333 14.9762 79.9048 10.2445 74.6776 10.2445ZM72.8854 30.8784C71.1231 30.8784 70.0776 30.2495 69.3607 29.4708L69.3309 18.3603C70.1075 17.4918 71.1828 16.8929 72.8854 16.8929C75.6035 16.8929 77.4853 19.9475 77.4853 23.8706C77.4853 27.8836 75.6334 30.8784 72.8854 30.8784Z" fill="#32325D"/>
<path fill-rule="evenodd" clip-rule="evenodd" d="M8.42662 18.3603C8.42662 17.1923 9.38245 16.7431 10.9655 16.7431C13.2356 16.7431 16.1031 17.4319 18.3732 18.6598V11.6221C15.894 10.6338 13.4447 10.2445 10.9655 10.2445C4.902 10.2445 0.869598 13.4189 0.869598 18.7197C0.869598 26.9852 12.2201 25.6675 12.2201 29.2312C12.2201 30.6088 11.0253 31.058 9.35258 31.058C6.8734 31.058 3.70722 30.0398 1.19816 28.6622V35.7897C3.97604 36.9876 6.78379 37.4968 9.35258 37.4968C15.5655 37.4968 19.8368 34.4122 19.8368 29.0516C19.807 20.1272 8.42662 21.7144 8.42662 18.3603Z" fill="#32325D"/>
<path fill-rule="evenodd" clip-rule="evenodd" d="M28.6185 4.255L21.3303 5.81228L21.3004 29.8003C21.3004 34.2325 24.616 37.4968 29.0367 37.4968C31.486 37.4968 33.2782 37.0476 34.2639 36.5085V30.4292C33.308 30.8185 28.5886 32.1961 28.5886 27.7638V17.1324H34.2639V10.7536H28.5886L28.6185 4.255Z" fill="#32325D"/>
<path fill-rule="evenodd" clip-rule="evenodd" d="M51.5883 8.47761L59.0856 6.86045V0.781097L51.5883 2.36832V8.47761Z" fill="#32325D"/>
</svg>
